<?xml version="1.0" encoding="iso-8859-1"?>
<!-- Generator: Adobe Illustrator 19.0.0, SVG Export Plug-In . SVG Version: 6.00 Build 0)  -->
<svg version="1.1" id="Layer_1" xmlns="http://www.w3.org/2000/svg" xmlns:xlink="http://www.w3.org/1999/xlink" x="0px" y="0px"
	 viewBox="0 0 511.998 511.998" style="enable-background:new 0 0 511.998 511.998;" xml:space="preserve">
<circle style="fill:#00A652;" cx="255.999" cy="255.996" r="255.996"/>
<path style="fill:#008C49;" d="M509.854,289.261l-87.095-87.095l-2.362,0.002l-49.801-52.06h-19.502v21.887l-64.739-64.643
	c-5.591-7.106-15.885-8.334-22.992-2.742c-0.226,0.178-0.433,0.369-0.644,0.557l-32.74-32.396
	c-3.055-5.045-9.182-7.668-15.146-6.013c-3.09,0.858-5.619,2.728-7.352,5.147l-6.32-6.256c-0.808-1.017-1.797-1.917-2.959-2.649
	c-5.526-3.479-12.828-1.819-16.306,3.707c-1.355,2.154-1.922,4.575-1.792,6.935c-0.363-0.053-0.727-0.065-1.091-0.089l-4.522-4.36
	c-3.223-4.385-8.923-6.56-14.48-5.016c-7.187,1.995-11.396,9.437-9.401,16.624c0.189,0.682,0.442,1.329,0.725,1.955
	c-2.998,1.258-5.254,3.657-6.401,6.533c-2.391-1.314-5.186-1.952-8.107-1.667c-7.64,0.745-13.242,7.476-12.637,15.096
	c-1.529-0.571-3.187-0.876-4.917-0.856c-7.547,0.084-13.597,6.269-13.515,13.815c0.032,2.94,1,5.647,2.605,7.858
	c-2.138,0.974-4.026,2.397-5.546,4.146c-2.521-1.559-5.551-2.337-8.729-2.027c-7.726,0.753-13.378,7.626-12.624,15.35
	c0.496,5.09,3.658,9.255,7.962,11.301c0.139,0.295,0.288,0.584,0.447,0.866c-0.406,0.247-0.806,0.51-1.188,0.811
	c-5.132,4.038-6.019,11.473-1.981,16.605c1.348,1.713,3.076,2.941,4.968,3.681c0.159,0.405,0.346,0.802,0.552,1.193
	c-1.145,2.568-1.5,5.43-1.011,8.198c-0.899,0.971-1.654,2.103-2.202,3.391c-2.357,5.54-0.156,11.866,4.91,14.825h-0.889
	l17.412,179.016h-3.202c-2.404,0-4.354,1.95-4.354,4.354v12.697c0,2.093,1.477,3.838,3.446,4.256H73.023v19.156l58.211,58.211
	c1.189,0.666,2.379,1.328,3.579,1.975h5.082v2.668c34.85,17.765,74.306,27.788,116.105,27.788
	C386.115,512,493.549,414.93,509.854,289.261z"/>
<g>
	<path style="fill:#FFE670;" d="M289.273,148.76c-0.069-0.705-0.207-1.386-0.377-2.05c5.72-1.301,9.72-6.673,9.135-12.665
		c-0.633-6.5-6.417-11.255-12.916-10.622c-2.532,0.247-4.793,1.282-6.58,2.83c-2.65-4.699-7.89-7.652-13.604-7.095
		c-7.726,0.753-13.378,7.626-12.624,15.35c0.588,6.031,4.911,10.782,10.452,12.225c-0.377,1.479-0.525,3.041-0.368,4.647
		c0.723,7.423,7.328,12.854,14.751,12.131C284.566,162.787,289.997,156.183,289.273,148.76z"/>
	<path style="fill:#FFE670;" d="M118.43,155.258c-0.069-0.705-0.206-1.386-0.376-2.05c5.72-1.301,9.72-6.673,9.135-12.664
		c-0.633-6.5-6.417-11.255-12.916-10.622c-2.533,0.247-4.793,1.282-6.58,2.83c-2.65-4.699-7.89-7.652-13.604-7.095
		c-7.726,0.753-13.378,7.626-12.624,15.351c0.588,6.031,4.911,10.782,10.452,12.225c-0.377,1.479-0.525,3.041-0.368,4.647
		c0.723,7.423,7.328,12.854,14.751,12.131C113.722,169.286,119.154,162.681,118.43,155.258z"/>
</g>
<circle style="fill:#FDC000;" cx="189.743" cy="183.45" r="85.419"/>
<g>
	<path style="fill:#FFFFFF;" d="M105.801,153.427c-0.557,0.438-1.055,0.921-1.523,1.423c-4.181-4.115-10.861-4.587-15.592-0.864
		c-5.132,4.038-6.019,11.473-1.981,16.605c1.574,2,3.664,3.345,5.931,4.015c-2.529,4.766-2.189,10.771,1.36,15.284
		c4.8,6.1,13.636,7.153,19.736,2.354c4.762-3.747,6.432-9.95,4.659-15.394c1.448-0.48,2.843-1.197,4.112-2.195
		c5.862-4.612,6.874-13.103,2.262-18.964C120.153,149.828,111.662,148.815,105.801,153.427z"/>
	<path style="fill:#FFFFFF;" d="M103.748,178.332c-0.277,0.652-0.483,1.314-0.651,1.98c-5.644-1.597-11.728,1.203-14.085,6.743
		c-2.557,6.009,0.241,12.953,6.25,15.51c2.342,0.996,4.822,1.17,7.131,0.667c0.075,5.394,3.262,10.496,8.545,12.744
		c7.143,3.039,15.395-0.287,18.435-7.43c2.373-5.576,0.853-11.818-3.321-15.738c1.04-1.117,1.916-2.418,2.548-3.903
		c2.92-6.863-0.277-14.793-7.14-17.714C114.599,168.273,106.668,171.469,103.748,178.332z"/>
	<path style="fill:#FFFFFF;" d="M281.194,167.546c-0.657,0.265-1.271,0.589-1.86,0.941c-2.865-5.118-9.149-7.435-14.731-5.182
		c-6.055,2.446-8.982,9.337-6.536,15.392c0.953,2.359,2.585,4.235,4.574,5.511c-3.758,3.87-5.108,9.732-2.958,15.056
		c2.907,7.197,11.098,10.675,18.294,7.768c5.618-2.269,8.954-7.759,8.771-13.483c1.525-0.055,3.065-0.356,4.561-0.961
		c6.915-2.793,10.258-10.664,7.465-17.579C295.98,168.096,288.11,164.753,281.194,167.546z"/>
	<path style="fill:#FFFFFF;" d="M168.026,146.69c-0.66,0.435-1.26,0.924-1.83,1.439c-4.26-4.973-11.645-6.129-17.259-2.437
		c-6.09,4.006-7.779,12.191-3.774,18.28c1.561,2.373,3.758,4.067,6.217,5.027c-3.263,5.06-3.454,11.773,0.068,17.127
		c4.762,7.238,14.488,9.246,21.726,4.485c5.651-3.717,8.095-10.457,6.638-16.681c1.656-0.396,3.276-1.063,4.78-2.053
		c6.955-4.574,8.885-13.922,4.309-20.877C184.328,144.045,174.982,142.116,168.026,146.69z"/>
	<path style="fill:#FFFFFF;" d="M218.141,146.869c-0.557,0.438-1.055,0.921-1.523,1.423c-4.181-4.115-10.861-4.587-15.592-0.864
		c-5.132,4.038-6.019,11.473-1.981,16.605c1.574,2,3.664,3.346,5.931,4.015c-2.529,4.766-2.189,10.772,1.361,15.284
		c4.8,6.1,13.636,7.153,19.736,2.354c4.762-3.747,6.432-9.95,4.659-15.394c1.448-0.48,2.843-1.197,4.112-2.195
		c5.862-4.612,6.874-13.103,2.262-18.964C232.492,143.269,224.003,142.257,218.141,146.869z"/>
	<path style="fill:#FFFFFF;" d="M264.944,144.559c-0.667,0.525-1.263,1.102-1.824,1.704c-5.005-4.928-13.005-5.492-18.669-1.035
		c-6.145,4.836-7.207,13.737-2.372,19.882c1.884,2.394,4.387,4.005,7.102,4.809c-3.027,5.706-2.622,12.897,1.63,18.299
		c5.747,7.304,16.326,8.566,23.63,2.818c5.702-4.487,7.702-11.914,5.579-18.433c1.735-0.574,3.404-1.434,4.922-2.629
		c7.018-5.522,8.231-15.689,2.708-22.706C282.128,140.249,271.962,139.036,264.944,144.559z"/>
	<path style="fill:#FFFFFF;" d="M190.431,93.018c-0.557,0.438-1.055,0.921-1.523,1.423c-4.181-4.115-10.861-4.587-15.592-0.864
		c-5.132,4.038-6.02,11.473-1.981,16.605c1.574,2,3.664,3.345,5.931,4.015c-2.529,4.766-2.189,10.771,1.361,15.283
		c4.8,6.1,13.636,7.153,19.736,2.354c4.762-3.747,6.432-9.949,4.659-15.394c1.448-0.48,2.843-1.197,4.112-2.195
		c5.862-4.612,6.874-13.103,2.262-18.964C204.784,89.418,196.293,88.405,190.431,93.018z"/>
	<path style="fill:#FFFFFF;" d="M150.611,80.803c0.189,0.682,0.442,1.329,0.725,1.955c-5.409,2.269-8.421,8.251-6.811,14.053
		c1.747,6.292,8.264,9.978,14.556,8.232c2.451-0.68,4.499-2.091,5.992-3.924c3.421,4.171,9.094,6.174,14.625,4.638
		c7.479-2.076,11.859-9.822,9.783-17.301c-1.621-5.839-6.7-9.772-12.407-10.236c0.117-1.521-0.008-3.084-0.44-4.64
		c-1.995-7.187-9.437-11.395-16.624-9.401C152.825,66.172,148.616,73.616,150.611,80.803z"/>
	<path style="fill:#FFFFFF;" d="M205.433,83.382c0.189,0.682,0.443,1.328,0.725,1.955c-5.408,2.269-8.421,8.251-6.811,14.053
		c1.747,6.292,8.264,9.978,14.556,8.232c2.451-0.68,4.499-2.091,5.992-3.924c3.421,4.171,9.094,6.174,14.625,4.638
		c7.479-2.076,11.859-9.822,9.783-17.301c-1.621-5.839-6.7-9.772-12.407-10.237c0.117-1.521-0.008-3.086-0.44-4.64
		c-1.995-7.187-9.437-11.395-16.624-9.401C207.648,68.752,203.438,76.195,205.433,83.382z"/>
	<path style="fill:#FFFFFF;" d="M135.347,113.412c-0.818,0.009-1.615,0.1-2.398,0.23c-0.93-6.715-6.718-11.854-13.674-11.778
		c-7.547,0.084-13.597,6.269-13.515,13.816c0.032,2.94,1,5.647,2.605,7.858c-5.674,2.584-9.595,8.325-9.522,14.96
		c0.099,8.97,7.451,16.161,16.42,16.062c7.003-0.077,12.903-4.583,15.115-10.82c1.665,0.582,3.448,0.906,5.313,0.885
		c8.619-0.095,15.529-7.16,15.434-15.779C151.031,120.226,143.967,113.317,135.347,113.412z"/>
	<path style="fill:#FFFFFF;" d="M263.363,104.61c-0.675,0.531-1.279,1.116-1.847,1.725c-5.068-4.989-13.168-5.561-18.903-1.048
		c-6.222,4.896-7.297,13.909-2.401,20.132c1.908,2.424,4.443,4.056,7.191,4.868c-3.066,5.777-2.654,13.059,1.65,18.529
		c5.819,7.396,16.532,8.674,23.928,2.854c5.773-4.543,7.798-12.063,5.649-18.665c1.755-0.581,3.447-1.452,4.984-2.661
		c7.106-5.592,8.334-15.885,2.742-22.992C280.764,100.246,270.47,99.018,263.363,104.61z"/>
</g>
<g>
	<path style="fill:#FFE670;" d="M135.794,178.794c-0.698-0.117-1.391-0.162-2.077-0.17c0.235-5.861-3.908-11.123-9.845-12.122
		c-6.441-1.083-12.539,3.26-13.622,9.7c-0.422,2.509-0.011,4.961,1.017,7.091c-5.228,1.333-9.445,5.623-10.397,11.285
		c-1.287,7.655,3.874,14.903,11.529,16.19c5.976,1.005,11.69-1.93,14.527-6.904c1.328,0.749,2.798,1.299,4.39,1.566
		c7.355,1.237,14.32-3.723,15.557-11.078C148.109,186.995,143.148,180.03,135.794,178.794z"/>
	<path style="fill:#FFE670;" d="M280.596,193.245c-0.069-0.705-0.206-1.386-0.377-2.05c5.72-1.301,9.719-6.673,9.135-12.664
		c-0.633-6.5-6.417-11.255-12.916-10.622c-2.532,0.247-4.793,1.282-6.58,2.83c-2.65-4.699-7.89-7.652-13.604-7.095
		c-7.725,0.753-13.378,7.626-12.624,15.35c0.588,6.031,4.911,10.782,10.452,12.225c-0.377,1.479-0.525,3.041-0.368,4.647
		c0.723,7.423,7.328,12.854,14.751,12.131C275.887,207.272,281.319,200.668,280.596,193.245z"/>
	<path style="fill:#FFE670;" d="M250.957,122.597c-0.069-0.705-0.206-1.386-0.377-2.05c5.72-1.301,9.72-6.673,9.135-12.665
		c-0.633-6.5-6.417-11.255-12.916-10.622c-2.533,0.247-4.793,1.282-6.58,2.83c-2.65-4.699-7.89-7.652-13.604-7.095
		c-7.726,0.752-13.378,7.626-12.624,15.35c0.588,6.031,4.911,10.782,10.452,12.225c-0.377,1.479-0.525,3.041-0.368,4.647
		c0.723,7.423,7.328,12.854,14.751,12.131C246.249,136.625,251.68,130.021,250.957,122.597z"/>
	<path style="fill:#FFE670;" d="M161.17,117.225c-0.069-0.705-0.207-1.386-0.377-2.05c5.72-1.301,9.719-6.673,9.135-12.665
		c-0.633-6.5-6.416-11.255-12.916-10.622c-2.532,0.247-4.793,1.282-6.58,2.83c-2.65-4.699-7.89-7.652-13.604-7.095
		c-7.726,0.753-13.378,7.626-12.624,15.35c0.588,6.031,4.911,10.782,10.452,12.225c-0.377,1.479-0.525,3.041-0.368,4.647
		c0.723,7.423,7.328,12.854,14.751,12.131C156.462,131.253,161.894,124.649,161.17,117.225z"/>
	<path style="fill:#FFE670;" d="M207.019,205.603c-0.069-0.705-0.206-1.386-0.377-2.05c5.72-1.301,9.719-6.673,9.135-12.665
		c-0.633-6.5-6.417-11.255-12.916-10.622c-2.532,0.247-4.793,1.282-6.58,2.83c-2.65-4.699-7.89-7.652-13.604-7.095
		c-7.726,0.753-13.378,7.626-12.624,15.351c0.587,6.031,4.911,10.782,10.452,12.225c-0.377,1.479-0.525,3.041-0.368,4.647
		c0.723,7.423,7.328-7.934,14.751-8.657C202.311,198.842,207.742,213.027,207.019,205.603z"/>
	<path style="fill:#FFE670;" d="M202.394,135.402c-0.6-0.377-1.221-0.685-1.852-0.958c2.473-5.318,0.675-11.771-4.419-14.977
		c-5.526-3.478-12.828-1.819-16.306,3.708c-1.355,2.154-1.922,4.575-1.792,6.935c-5.337-0.783-10.881,1.553-13.94,6.411
		c-4.135,6.569-2.162,15.246,4.407,19.381c5.128,3.228,11.531,2.719,16.065-0.778c0.937,1.204,2.082,2.276,3.448,3.136
		c6.312,3.974,14.65,2.077,18.623-4.235C210.602,147.714,208.706,139.376,202.394,135.402z"/>
	<path style="fill:#FFE670;" d="M204.474,78.936c-0.6-0.377-1.221-0.685-1.852-0.958c2.473-5.318,0.675-11.771-4.419-14.977
		c-5.526-3.479-12.828-1.819-16.306,3.707c-1.355,2.154-1.922,4.575-1.792,6.935c-5.337-0.783-10.881,1.553-13.94,6.411
		c-4.135,6.569-2.162,15.246,4.407,19.38c5.128,3.228,11.531,2.719,16.065-0.778c0.937,1.204,2.082,2.276,3.448,3.136
		c6.312,3.974,14.649,2.077,18.623-4.235C212.682,91.247,210.786,82.909,204.474,78.936z"/>
</g>
<polygon style="fill:#E02424;" points="93.033,201.88 110.556,382.049 269.442,382.049 286.966,201.88 "/>
<polygon style="fill:#C2001B;" points="286.966,201.88 189.999,201.88 189.999,382.049 269.442,382.049 "/>
<path style="fill:#FFFFFF;" d="M272.755,380.894h-24.913l9.747-179.016h-22.808l-9.747,179.016h-23.632V201.88h-22.808v179.016
	h-23.632l-9.747-179.016h-22.808l9.747,179.016h-24.913c-2.404,0-4.354,1.95-4.354,4.354v12.697c0,2.404,1.949,4.353,4.354,4.353
	h165.512c2.404,0,4.354-1.949,4.354-4.353v-12.698C277.109,382.844,275.16,380.894,272.755,380.894z"/>
<g>
	<path style="fill:#E1E1E3;" d="M272.755,380.894h-24.913l9.747-179.016h-22.808l-9.747,179.016h-23.632V201.88h-11.404V402.3
		h82.756c2.404,0,4.354-1.949,4.354-4.353v-12.698C277.109,382.844,275.16,380.894,272.755,380.894z"/>
	<rect x="351.094" y="150.108" style="fill:#E1E1E3;" width="19.502" height="52.819"/>
</g>
<rect x="360.842" y="150.108" style="fill:#C8C6CC;" width="9.749" height="52.808"/>
<rect x="316.163" y="386.805" style="fill:#FFFFFF;" width="89.369" height="15.5"/>
<rect x="360.842" y="386.795" style="fill:#E1E1E3;" width="44.69" height="15.506"/>
<polygon style="fill:#004DB0;" points="302.696,220.449 308.822,388.21 412.868,388.21 418.995,220.449 "/>
<polygon style="fill:#003D8D;" points="418.993,220.454 412.871,388.21 360.847,388.21 360.847,220.454 "/>
<polygon style="fill:#FFFFFF;" points="422.759,202.166 298.931,202.166 291.082,227.144 430.608,227.144 "/>
<g>
	<polygon style="fill:#E1E1E3;" points="430.614,227.14 360.847,227.14 360.847,202.168 422.756,202.168 	"/>
	<circle style="fill:#E1E1E3;" cx="360.842" cy="304.333" r="41.346"/>
</g>
<path style="fill:#C8C6CC;" d="M402.193,304.326c0,22.841-18.515,41.346-41.346,41.346V262.98
	C383.677,262.979,402.193,281.495,402.193,304.326z"/>
<polygon style="fill:#E02424;" points="360.846,278.569 369.925,294.551 387.931,298.248 375.537,311.822 377.586,330.09 
	360.846,322.497 344.106,330.09 346.154,311.822 333.759,298.248 351.766,294.551 "/>
<polygon style="fill:#C2001B;" points="375.538,311.817 377.586,330.092 360.847,322.497 360.847,278.57 369.927,294.556 
	387.93,298.244 "/>
<rect x="73.024" y="402.207" style="fill:#FFE670;" width="365.96" height="19.156"/>
<rect x="255.999" y="402.207" style="fill:#FFCF00;" width="182.98" height="19.156"/>
<g>
</g>
<g>
</g>
<g>
</g>
<g>
</g>
<g>
</g>
<g>
</g>
<g>
</g>
<g>
</g>
<g>
</g>
<g>
</g>
<g>
</g>
<g>
</g>
<g>
</g>
<g>
</g>
<g>
</g>
</svg>
